<mxfile host="app.diagrams.net" modified="2021-07-19T07:39:18.426Z" agent="5.0 (Macintosh; Intel Mac OS X 10_15_7) AppleWebKit/537.36 (KHTML, like Gecko) Chrome/91.0.4472.114 Safari/537.36" etag="PG9sFkkvUtatNJ1YAhvb" version="14.9.0" type="github">
  <diagram id="bX042Hk_9FZccrrRi018" name="Page-1">
    <mxGraphModel dx="3236" dy="1241" grid="1" gridSize="10" guides="1" tooltips="1" connect="1" arrows="1" fold="1" page="1" pageScale="1" pageWidth="850" pageHeight="1100" math="0" shadow="0">
      <root>
        <mxCell id="0" />
        <mxCell id="1" parent="0" />
        <mxCell id="oB1VX_bSEQFBR01DQZIY-1" value="&lt;font style=&quot;font-size: 15px&quot;&gt;F(A)&lt;/font&gt;" style="rounded=1;whiteSpace=wrap;html=1;" vertex="1" parent="1">
          <mxGeometry x="150" y="180" width="140" height="90" as="geometry" />
        </mxCell>
        <mxCell id="oB1VX_bSEQFBR01DQZIY-3" value="&lt;font style=&quot;font-size: 15px&quot;&gt;F(B)&lt;/font&gt;" style="rounded=1;whiteSpace=wrap;html=1;" vertex="1" parent="1">
          <mxGeometry x="540" y="180" width="140" height="90" as="geometry" />
        </mxCell>
        <mxCell id="oB1VX_bSEQFBR01DQZIY-4" value="" style="rounded=1;whiteSpace=wrap;html=1;" vertex="1" parent="1">
          <mxGeometry x="160" y="410" width="140" height="80" as="geometry" />
        </mxCell>
        <mxCell id="oB1VX_bSEQFBR01DQZIY-5" value="&lt;font style=&quot;font-size: 18px&quot;&gt;&lt;b&gt;APP1&lt;/b&gt;&lt;/font&gt;" style="text;html=1;strokeColor=none;fillColor=none;align=center;verticalAlign=middle;whiteSpace=wrap;rounded=0;" vertex="1" parent="1">
          <mxGeometry x="80" y="215" width="40" height="20" as="geometry" />
        </mxCell>
        <mxCell id="oB1VX_bSEQFBR01DQZIY-6" value="&lt;b style=&quot;color: rgb(0 , 0 , 0) ; font-family: &amp;#34;helvetica&amp;#34; ; font-size: 18px ; font-style: normal ; letter-spacing: normal ; text-align: center ; text-indent: 0px ; text-transform: none ; word-spacing: 0px ; background-color: rgb(248 , 249 , 250)&quot;&gt;SoundScape&lt;/b&gt;" style="text;whiteSpace=wrap;html=1;" vertex="1" parent="1">
          <mxGeometry x="690" y="215" width="70" height="30" as="geometry" />
        </mxCell>
        <mxCell id="oB1VX_bSEQFBR01DQZIY-7" value="&lt;b style=&quot;color: rgb(0 , 0 , 0) ; font-family: &amp;#34;helvetica&amp;#34; ; font-size: 18px ; font-style: normal ; letter-spacing: normal ; text-indent: 0px ; text-transform: none ; word-spacing: 0px ; background-color: rgb(248 , 249 , 250)&quot;&gt;MY demonstrator app&lt;/b&gt;" style="text;whiteSpace=wrap;html=1;align=center;" vertex="1" parent="1">
          <mxGeometry x="-15" y="420" width="175" height="70" as="geometry" />
        </mxCell>
        <mxCell id="oB1VX_bSEQFBR01DQZIY-8" value="" style="endArrow=classic;html=1;dashed=1;" edge="1" parent="1">
          <mxGeometry width="50" height="50" relative="1" as="geometry">
            <mxPoint x="290" y="230" as="sourcePoint" />
            <mxPoint x="539" y="230" as="targetPoint" />
          </mxGeometry>
        </mxCell>
        <mxCell id="oB1VX_bSEQFBR01DQZIY-9" value="&lt;b style=&quot;color: rgb(0 , 0 , 0) ; font-family: &amp;#34;helvetica&amp;#34; ; font-size: 18px ; font-style: normal ; letter-spacing: normal ; text-align: center ; text-indent: 0px ; text-transform: none ; word-spacing: 0px ; background-color: rgb(248 , 249 , 250)&quot;&gt;HTTP SERVER&lt;/b&gt;" style="text;whiteSpace=wrap;html=1;" vertex="1" parent="1">
          <mxGeometry x="560" y="140" width="140" height="30" as="geometry" />
        </mxCell>
        <mxCell id="oB1VX_bSEQFBR01DQZIY-10" value="&lt;b style=&quot;color: rgb(0 , 0 , 0) ; font-family: &amp;#34;helvetica&amp;#34; ; font-size: 18px ; font-style: normal ; letter-spacing: normal ; text-align: center ; text-indent: 0px ; text-transform: none ; word-spacing: 0px ; background-color: rgb(248 , 249 , 250)&quot;&gt;HTTP CLIENT&lt;/b&gt;" style="text;whiteSpace=wrap;html=1;" vertex="1" parent="1">
          <mxGeometry x="160" y="130" width="120" height="40" as="geometry" />
        </mxCell>
        <mxCell id="oB1VX_bSEQFBR01DQZIY-11" value="&lt;b style=&quot;color: rgb(0 , 0 , 0) ; font-family: &amp;#34;helvetica&amp;#34; ; font-size: 18px ; font-style: normal ; letter-spacing: normal ; text-align: center ; text-indent: 0px ; text-transform: none ; word-spacing: 0px ; background-color: rgb(248 , 249 , 250)&quot;&gt;HTTP&lt;/b&gt;" style="text;whiteSpace=wrap;html=1;" vertex="1" parent="1">
          <mxGeometry x="355" y="185" width="115" height="30" as="geometry" />
        </mxCell>
        <mxCell id="oB1VX_bSEQFBR01DQZIY-12" value="" style="endArrow=classic;html=1;dashed=1;entryX=0.429;entryY=-0.025;entryDx=0;entryDy=0;entryPerimeter=0;" edge="1" parent="1" source="oB1VX_bSEQFBR01DQZIY-1" target="oB1VX_bSEQFBR01DQZIY-4">
          <mxGeometry width="50" height="50" relative="1" as="geometry">
            <mxPoint x="400" y="370" as="sourcePoint" />
            <mxPoint x="450" y="320" as="targetPoint" />
          </mxGeometry>
        </mxCell>
        <mxCell id="oB1VX_bSEQFBR01DQZIY-13" value="&lt;font style=&quot;font-size: 14px&quot;&gt;&lt;b&gt;CALLING SOME FUNCTION LIKE, GIVE LOCATION&lt;/b&gt;&lt;/font&gt;" style="text;html=1;strokeColor=none;fillColor=none;align=center;verticalAlign=middle;whiteSpace=wrap;rounded=0;" vertex="1" parent="1">
          <mxGeometry x="230" y="330" width="170" height="40" as="geometry" />
        </mxCell>
        <mxCell id="oB1VX_bSEQFBR01DQZIY-14" value="" style="endArrow=none;html=1;strokeWidth=4;" edge="1" parent="1">
          <mxGeometry width="50" height="50" relative="1" as="geometry">
            <mxPoint x="40" y="600" as="sourcePoint" />
            <mxPoint x="790" y="600" as="targetPoint" />
          </mxGeometry>
        </mxCell>
        <mxCell id="oB1VX_bSEQFBR01DQZIY-16" value="&lt;font style=&quot;font-size: 15px&quot;&gt;&lt;b&gt;F(A)&lt;/b&gt;&lt;/font&gt;" style="text;html=1;strokeColor=none;fillColor=none;align=center;verticalAlign=middle;whiteSpace=wrap;rounded=0;" vertex="1" parent="1">
          <mxGeometry x="220" y="680" width="70" height="40" as="geometry" />
        </mxCell>
        <mxCell id="oB1VX_bSEQFBR01DQZIY-17" value="&lt;font style=&quot;font-size: 15px&quot;&gt;&lt;b&gt;F(B)&lt;/b&gt;&lt;/font&gt;" style="text;html=1;strokeColor=none;fillColor=none;align=center;verticalAlign=middle;whiteSpace=wrap;rounded=0;" vertex="1" parent="1">
          <mxGeometry x="550" y="680" width="70" height="40" as="geometry" />
        </mxCell>
        <mxCell id="oB1VX_bSEQFBR01DQZIY-21" value="" style="swimlane;startSize=0;" vertex="1" parent="1">
          <mxGeometry x="210" y="640" width="450" height="120" as="geometry" />
        </mxCell>
        <mxCell id="oB1VX_bSEQFBR01DQZIY-23" value="" style="endArrow=none;html=1;strokeWidth=4;" edge="1" parent="1" source="oB1VX_bSEQFBR01DQZIY-17" target="oB1VX_bSEQFBR01DQZIY-16">
          <mxGeometry width="50" height="50" relative="1" as="geometry">
            <mxPoint x="340" y="725" as="sourcePoint" />
            <mxPoint x="390" y="675" as="targetPoint" />
          </mxGeometry>
        </mxCell>
        <mxCell id="oB1VX_bSEQFBR01DQZIY-24" value="&lt;b&gt;&lt;font style=&quot;font-size: 14px&quot;&gt;GEOLOCATION SETUPS&lt;/font&gt;&lt;/b&gt;" style="text;html=1;strokeColor=none;fillColor=none;align=center;verticalAlign=middle;whiteSpace=wrap;rounded=0;" vertex="1" parent="1">
          <mxGeometry x="290" y="50" width="290" height="50" as="geometry" />
        </mxCell>
      </root>
    </mxGraphModel>
  </diagram>
</mxfile>
